<svg xmlns="http://www.w3.org/2000/svg" xmlns:xlink="http://www.w3.org/1999/xlink" viewBox="0 0 398.09 410.27"><defs><style>.cls-1{fill:#fff;}.cls-2{fill:url(#linear-gradient);}.cls-3{fill:url(#linear-gradient-2);}.cls-4{fill:url(#linear-gradient-3);}.cls-5{fill:url(#linear-gradient-4);}.cls-6{fill:url(#linear-gradient-5);}.cls-7{fill:url(#linear-gradient-6);}.cls-8{fill:url(#linear-gradient-7);}.cls-9{fill:url(#linear-gradient-8);}.cls-10{fill:url(#linear-gradient-9);}.cls-11{fill:url(#linear-gradient-10);}.cls-12{fill:url(#linear-gradient-11);}</style><linearGradient id="linear-gradient" x1="45.28" y1="103.4" x2="-103.93" y2="1064.05" gradientUnits="userSpaceOnUse"><stop offset="0" stop-color="#434343"/><stop offset="0.18" stop-color="#313131"/><stop offset="0.5" stop-color="#161616"/><stop offset="0.78" stop-color="#060606"/><stop offset="1"/></linearGradient><linearGradient id="linear-gradient-2" x1="60.6" y1="171.19" x2="-81.85" y2="1088.27" xlink:href="#linear-gradient"/><linearGradient id="linear-gradient-3" x1="92.03" y1="205.49" x2="-67.41" y2="1231.96" xlink:href="#linear-gradient"/><linearGradient id="linear-gradient-4" x1="125.94" y1="260.05" x2="0.34" y2="1068.65" xlink:href="#linear-gradient"/><linearGradient id="linear-gradient-5" x1="157" y1="270.13" x2="21.63" y2="1141.66" xlink:href="#linear-gradient"/><linearGradient id="linear-gradient-6" x1="218.97" y1="291.05" x2="88.76" y2="1129.34" xlink:href="#linear-gradient"/><linearGradient id="linear-gradient-7" x1="253.87" y1="290.52" x2="123.9" y2="1127.22" xlink:href="#linear-gradient"/><linearGradient id="linear-gradient-8" x1="284.49" y1="270.94" x2="141.21" y2="1193.38" xlink:href="#linear-gradient"/><linearGradient id="linear-gradient-9" x1="329.72" y1="252.11" x2="181.25" y2="1207.95" xlink:href="#linear-gradient"/><linearGradient id="linear-gradient-10" x1="367.03" y1="212.91" x2="233.36" y2="1073.5" xlink:href="#linear-gradient"/><linearGradient id="linear-gradient-11" x1="383.89" y1="162.71" x2="251.73" y2="1013.59" xlink:href="#linear-gradient"/></defs><title>Dont Give Up_1</title><g id="Layer_2" data-name="Layer 2"><g id="Layer_1-2" data-name="Layer 1"><path class="cls-1" d="M0,200.35a247.27,247.27,0,0,1,1.89-30.87c1.23-9.63,3.7-16.26,6.72-20.15s6.6-5.06,10.49-3.87l24.37,7.41a11.08,11.08,0,0,1,7.64,7.81c1.26,4,1.21,9.33.3,16.53A185.22,185.22,0,0,0,50,200.35Zm44.3-24a12.85,12.85,0,0,0-.32-5.9,4.18,4.18,0,0,0-3.33-2.72l-25.57-5.24A3.68,3.68,0,0,0,11,164.16a15.67,15.67,0,0,0-2.11,6.76q-.59,4.76-1,9.65l35.57,3.67Q43.82,180.25,44.3,176.38Z"/><path class="cls-1" d="M56.92,142.77a10.49,10.49,0,0,1-10.52,1.81l-24.94-9.07c-3.78-1.37-6.08-4.58-6.6-9.7s.85-11.75,4.49-19.32,7.83-12.44,11.94-14.86,7.87-2.3,11.21,0l22,15.21a11.4,11.4,0,0,1,5.1,9.51c.14,4-1.26,8.59-4,14.2S60.16,140.3,56.92,142.77ZM58,118.62,34,104.78c-2.86-1.68-5.71-.09-8.2,5s-2,8.58,1,10l25.06,11.67c3,1.4,5.41-.09,7.39-4.23S60.88,120.31,58,118.62Z"/><path class="cls-1" d="M39,75.84A179.52,179.52,0,0,1,52.1,60.51,236.17,236.17,0,0,1,83.73,72.38l.18-.16L63.5,49.63Q68.81,45,74.44,40.78l31.36,40q-4.86,3.63-9.42,7.7a227.21,227.21,0,0,0-37.81-14.7l-.18.2L86.08,98.72c-2.38,2.66-4.68,5.42-6.87,8.3Z"/><path class="cls-1" d="M92.61,37.71q-2.1,1.29-4.17,2.65c-1.46-2.1-2.92-4.21-4.39-6.31q6.35-4.14,13-7.78l3.48,5.92q-1.27,6.09-2.12,12.16c-1.91,1.15-3.79,2.35-5.66,3.58Q92.55,42.85,92.61,37.71Z"/><path class="cls-1" d="M122.89,22.14Q115.51,25,108.4,28.51L105,22.14a207.83,207.83,0,0,1,45.76-16l1.74,7q-7.74,1.74-15.33,4.08,7,20.38,13.91,40.78-5.64,1.74-11.12,3.89Q131.43,42,122.89,22.14Z"/><path class="cls-1" d="M189.1,48.48a11.27,11.27,0,0,1-5.51-8.94Q182.29,26.46,181,13.38c-.41-4,1.19-7.32,5-9.73S195.63-.11,203.33,0s13.49,1.68,17.2,4.2,5.21,5.88,4.65,9.89c-.19,1.41-.39,2.83-.58,4.25q-6.81-.84-13.66-1.21c.09-1.59.19-3.18.29-4.78.22-3.26-2.32-5.1-7.61-5.2s-7.91,1.65-7.82,4.92q.27,13.68.56,27.35c.08,3.25,2.24,4.79,6.5,4.86s6.48-1.38,6.69-4.62l.6-9.77q-3.37-.18-6.75-.25c0-2.38.11-4.76.16-7.14a201.79,201.79,0,0,1,20.27,1.43l-2.22,16.22a11.34,11.34,0,0,1-5.83,8.75c-3.29,1.87-7.68,2.61-13.39,2.51S192.31,50.45,189.1,48.48Z"/><path class="cls-1" d="M236.87,3.81Q244.66,5.11,252.3,7q-6.59,24.21-13.18,48.42Q233.39,54,227.55,53,232.21,28.42,236.87,3.81Z"/><path class="cls-1" d="M259.64,8.92q7.64,2.16,15.09,4.89-2.46,19.87-6.87,39.27l.21.09Q280.13,37,293.91,22q6.48,3.15,12.72,6.78a365.89,365.89,0,0,0-36.8,37.66,155.4,155.4,0,0,0-14.4-6.06A350.79,350.79,0,0,0,259.64,8.92Z"/><path class="cls-1" d="M313.1,32.66a184,184,0,0,1,33.4,27.11l-5.25,5A176.26,176.26,0,0,0,321.5,47.32l-8.37,10.5a164.9,164.9,0,0,1,14.81,12.7c-1.7,1.73-3.41,3.45-5.11,5.17A156.38,156.38,0,0,0,308.61,63.5l-9.72,12.21A141.53,141.53,0,0,1,315,90l-5.25,5a137.68,137.68,0,0,0-25-20.33Z"/><path class="cls-1" d="M329.62,116.3a11.47,11.47,0,0,1,5.2-9.44l31.91-22.07q4.57,6.83,8.59,14.22l-34.06,19.65a4.36,4.36,0,0,0-2.44,3.43,12.53,12.53,0,0,0,4.4,9.12,4.05,4.05,0,0,0,4.12,0l35.52-16.61q3.27,7.67,5.94,15.85l-36.13,13.34a10.52,10.52,0,0,1-10.51-1.62c-3.21-2.39-5.94-6.41-8.63-12S329.46,120.24,329.62,116.3Z"/><path class="cls-1" d="M392.38,142.81a217.18,217.18,0,0,1,5.13,27.37c1.18,9.66.48,17.4-1.45,22.52s-5.07,7.66-9.1,7.65H382c-4,0-7.1-2.38-9.31-6.75s-3.58-10.73-4.58-18.94q-.48-3.9-1.11-7.71l-20,4c-.77-4.72-1.74-9.3-2.87-13.74Zm-17.17,30.77a16,16,0,0,0,1.76,6.28,3.7,3.7,0,0,0,3.81,1.81l5.91-.61a3.8,3.8,0,0,0,3.42-2.71,16.58,16.58,0,0,0,.32-7.09q-.54-4.42-1.25-8.73l-15.12,3Q374.72,169.51,375.21,173.58Z"/><path class="cls-2" d="M50,209.92a185.22,185.22,0,0,0,1.41,23.14c.92,7.2,1,12.53-.3,16.53a11.07,11.07,0,0,1-7.64,7.81L19.1,264.81c-3.89,1.19-7.44,0-10.48-3.87s-5.5-10.52-6.73-20.15A247,247,0,0,1,0,209.92ZM8.92,239.35A15.49,15.49,0,0,0,11,246.11a3.66,3.66,0,0,0,4.05,1.64l25.57-5.24A4.21,4.21,0,0,0,44,239.79a12.84,12.84,0,0,0,.32-5.9q-.48-3.87-.8-7.86L7.93,229.7Q8.33,234.59,8.92,239.35Z"/><path class="cls-3" d="M14.86,284.46c.52-5.11,2.81-8.33,6.6-9.7l24.94-9.07a10.49,10.49,0,0,1,10.52,1.81c3.24,2.47,6,6.58,8.71,12.2s4.12,10.17,4,14.2a11.41,11.41,0,0,1-5.1,9.51l-22,15.21c-3.34,2.32-7.09,2.44-11.21,0S23,311.35,19.35,303.79,14.34,289.55,14.86,284.46ZM34,305.5l24-13.85c2.9-1.69,3.21-4.48,1.21-8.61s-4.36-5.63-7.39-4.23L26.75,290.49c-3,1.38-3.44,4.79-1,9.95S31.11,307.17,34,305.5Z"/><path class="cls-4" d="M79.21,303.25a136.29,136.29,0,0,0,9.84,11.5A235.15,235.15,0,0,0,77,345.32l.2.17L97.6,322.9q4,3.48,8.2,6.64L74.44,369.49Q68,364.65,61.88,359.21A240.54,240.54,0,0,1,76,320.89l-.16-.17L48.14,345.5q-4.77-5.31-9.17-11.07Z"/><path class="cls-5" d="M112,343.05c-1.15-.7-2.29-1.43-3.42-2.17l4.38-6.3q4.75,3.1,9.73,5.83l-3.48,5.91q-5.4,2.44-11.08,4.55c-1.72-1.05-3.43-2.13-5.11-3.24Q107.64,345.44,112,343.05Z"/><path class="cls-6" d="M137.13,355.07q-6-2.35-11.8-5.19l3.39-6.37a156.37,156.37,0,0,0,34.3,12q-.89,3.48-1.75,7Q155,361,148.78,359.15q-7,20.39-13.9,40.78-7.53-2.31-14.84-5.19Q128.59,374.91,137.13,355.07Z"/><path class="cls-7" d="M186,406.62c-3.82-2.41-5.41-5.7-5-9.72q1.32-13.09,2.62-26.17a11.28,11.28,0,0,1,5.51-8.94c3.21-2,7.58-2.85,13.29-2.94s10.11.64,13.39,2.51a11.32,11.32,0,0,1,5.83,8.75c.19,1.41.39,2.83.58,4.25q-6.15.75-12.34,1.09l-.3-4.78c-.22-3.29-2.45-4.77-6.69-4.69s-6.42,1.64-6.51,4.93q-.27,13.68-.56,27.35c-.08,3.23,2.53,4.94,7.83,4.86s7.83-1.92,7.61-5.14l-.6-9.77q-3.52.19-7.06.26l-.15-7.14A193.37,193.37,0,0,0,223,380l2.22,16.22c.56,4-.92,7.35-4.65,9.89s-9.51,4.07-17.2,4.2S189.79,409,186,406.62Z"/><path class="cls-8" d="M227.55,357.25q5.83-1,11.57-2.39,6.58,24.21,13.18,48.42-7.65,1.86-15.43,3.18Q232.22,381.86,227.55,357.25Z"/><path class="cls-9" d="M244.62,353.41c3.81-1.08,7.59-2.3,11.31-3.66q10.92,16.8,23.61,32.68l.25-.11a396.52,396.52,0,0,0-9.48-38.67q4.86-2.37,9.53-5.08a353.15,353.15,0,0,1,13.43,50.06,204.69,204.69,0,0,1-19.21,8.08A363.46,363.46,0,0,1,244.62,353.41Z"/><path class="cls-10" d="M284.69,335.62a138,138,0,0,0,25-20.32l5.25,5a140.56,140.56,0,0,1-16.09,14.24l8.37,10.51a156.81,156.81,0,0,0,14-12l5.11,5.17a162.22,162.22,0,0,1-14.63,12.54L321.5,363a175.27,175.27,0,0,0,19.75-17.48l5.25,5a184,184,0,0,1-33.4,27.11Z"/><path class="cls-11" d="M368,318.78c-4.05,2.35-7.8,2.18-11.17-.16l-31.92-22.07q3.44-5.13,6.44-10.67l34.06,19.65a3.8,3.8,0,0,0,4.28,0,12.16,12.16,0,0,0,3.8-5,12.87,12.87,0,0,0,1.57-6.18,4.06,4.06,0,0,0-2.53-3.6L337,274.17q2.44-5.75,4.45-11.88l36.13,13.35c3.83,1.4,6.13,4.58,6.65,9.58s-.85,11.52-4.47,19S372,316.44,368,318.78Z"/><path class="cls-12" d="M344.12,253.06A162.13,162.13,0,0,0,348,232.54c.89-7.23,2.2-12.82,4.41-16.67s5.25-5.94,9.3-6h4.93c4,0,7.14,2.24,9.11,6.86s2.69,11.56,1.63,20.23q-.51,4.13-1.17,8.13l20,4c-1,6.29-2.32,12.4-3.83,18.33Zm26.14-17.12a13.44,13.44,0,0,0-.4-6.35,3.82,3.82,0,0,0-3.45-2.47l-5.9-.61a3.78,3.78,0,0,0-3.79,1.56,12.73,12.73,0,0,0-1.68,5.55q-.44,3.6-1,7.1l15.12,3C369.56,241.17,369.94,238.57,370.26,235.94Z"/></g></g></svg>