<svg xmlns="http://www.w3.org/2000/svg" xmlns:xlink="http://www.w3.org/1999/xlink" viewBox="0 0 546.14 285.8"><defs><style>.cls-1{fill:#fff;}.cls-2{fill:url(#linear-gradient);}.cls-3{fill:url(#linear-gradient-2);}</style><linearGradient id="linear-gradient" x1="411.7" y1="-103.36" x2="-1410.56" y2="2610.29" gradientUnits="userSpaceOnUse"><stop offset="0" stop-color="#434343"/><stop offset="0.09" stop-color="#313131"/><stop offset="0.25" stop-color="#161616"/><stop offset="0.39" stop-color="#060606"/><stop offset="0.5"/></linearGradient><linearGradient id="linear-gradient-2" x1="671.37" y1="-470.6" x2="-267.17" y2="2538" gradientUnits="userSpaceOnUse"><stop offset="0" stop-color="#434343"/><stop offset="0.18" stop-color="#313131"/><stop offset="0.5" stop-color="#161616"/><stop offset="0.78" stop-color="#060606"/><stop offset="1"/></linearGradient></defs><title>M Logo</title><g id="Layer_2" data-name="Layer 2"><g id="Layer_1-2" data-name="Layer 1"><path class="cls-1" d="M239,282.92,154.22,88.43,74.12,284.91,0,285.8,118.88.83,187.44,0,313.15,282Z"/><polygon class="cls-2" points="313.15 282.03 187.44 0 182.01 0.07 155.75 89.78 155.64 91.69 239.03 282.92 313.15 282.03"/><path class="cls-1" d="M472,282.92,387.21,88.43l-80.1,196.48L233,285.8,351.87.83,420.43,0,546.14,282Z"/><polygon class="cls-3" points="546.14 282.03 420.43 0 415 0.07 388.74 89.78 388.63 91.69 472.02 282.92 546.14 282.03"/></g></g></svg>