<svg xmlns="http://www.w3.org/2000/svg" xmlns:xlink="http://www.w3.org/1999/xlink" viewBox="0 0 804.02 375.18"><defs><style>.cls-1{fill:#434343;}.cls-2{fill:url(#linear-gradient);}.cls-3{fill:url(#linear-gradient-2);}.cls-4{fill:url(#linear-gradient-3);}.cls-5{fill:url(#linear-gradient-4);}.cls-6{fill:url(#linear-gradient-5);}.cls-7{fill:url(#linear-gradient-6);}</style><linearGradient id="linear-gradient" x1="253.25" y1="-2.94" x2="17.48" y2="450.24" gradientUnits="userSpaceOnUse"><stop offset="0" stop-color="#434343"/><stop offset="0.18" stop-color="#313131"/><stop offset="0.5" stop-color="#161616"/><stop offset="0.78" stop-color="#060606"/><stop offset="1"/></linearGradient><linearGradient id="linear-gradient-2" x1="-13.61" y1="163.76" x2="278.62" y2="340.23" xlink:href="#linear-gradient"/><linearGradient id="linear-gradient-3" x1="465.5" y1="-64.27" x2="120.33" y2="719.26" xlink:href="#linear-gradient"/><linearGradient id="linear-gradient-4" x1="395.12" y1="548.2" x2="929.82" y2="-441.8" xlink:href="#linear-gradient"/><linearGradient id="linear-gradient-5" x1="856.84" y1="36.82" x2="-140.57" y2="549.29" xlink:href="#linear-gradient"/><linearGradient id="linear-gradient-6" x1="925.58" y1="170.61" x2="-71.83" y2="683.08" xlink:href="#linear-gradient"/></defs><title>Asset 5</title><g id="Layer_2" data-name="Layer 2"><g id="Layer_1-2" data-name="Layer 1"><path class="cls-1" d="M0,5.21H71.91l55.76,218.34h1V5.21h51.07V370H120.89L52.11,103.7h-1V370H0Z"/><path class="cls-1" d="M266.79,5.21h77.64L403.84,370H346.52L336.1,297.54v1H271L260.54,370H207.39Zm62.53,243.87L303.79,68.78h-1l-25,180.3Z"/><path class="cls-1" d="M431.45,5.21H519q42.72,0,64.09,22.93t21.37,67.22V279.82q0,44.31-21.37,67.22T519,370H431.45ZM518,317.86q14.07,0,21.62-8.33t7.56-27.1V92.75q0-18.75-7.56-27.09T518,57.32H488.77V317.86Z"/><path class="cls-1" d="M654.47,351.47q-21.37-23.7-21.37-68V262.63h54.2v25q0,35.44,29.7,35.44,14.58,0,22.14-8.6t7.56-27.88q0-22.92-10.42-40.39t-38.56-41.94Q662.28,173,648.21,147.73T634.14,90.67q0-43.24,21.89-67T719.6,0q41.16,0,62.27,23.71t21.11,68v15.11h-54.2V88.06q0-18.75-7.29-27.35t-21.37-8.6q-28.67,0-28.66,34.91a68.77,68.77,0,0,0,10.69,37q10.67,17.19,38.82,41.69,36,31.26,49.5,56.79T804,282.43q0,44.82-22.15,68.78t-64.35,24Q675.82,375.18,654.47,351.47Z"/><polygon class="cls-2" points="128.48 5.37 128.48 369.97 179.48 370.37 179.48 5.37 128.48 5.37"/><polygon class="cls-3" points="0.48 369.97 51.07 369.97 51.07 103.7 51.48 103.7 51.48 5.37 0.48 5.37 0.48 369.97"/><polygon class="cls-4" points="403.42 369.97 347.64 24.89 344.46 5.37 305.61 5.37 303.48 68.36 303.54 68.78 303.79 68.78 329.32 249.08 328.01 249.08 334.74 298.58 336.1 298.58 336.1 297.54 346.52 369.97 403.42 369.97"/><path class="cls-5" d="M431.67,370H519q42.72,0,64.09-22.93t21.37-67.22V95.36q0-36.77-14.75-58.81l-42.57,89.82V282.43q0,18.76-7.56,27.1T518,317.86H488.77V249.5Z"/><path class="cls-6" d="M803,106.82V91.71q0-38.43-15.91-61.37l-32.49,76.48Z"/><path class="cls-7" d="M651.92,348.48c.82,1,1.67,2,2.55,3q21.36,23.73,63,23.71,42.21,0,64.35-24T804,282.43q0-34.4-13.55-59.93T741,165.71c-2.9-2.53-5.64-5-8.27-7.39l-23.81,56.06q19.17,18.09,27.39,31.83,10.41,17.47,10.42,40.39,0,19.29-7.56,27.88T717,323.08q-29.7,0-29.7-35.44V265.21Z"/></g></g></svg>